Coordinates
version=1
nRows=10
nColumns=40
inDegrees=yes

Units are S.I. units (second, meters, Newtons, ...)
If the header above contains a line with 'inDegrees', this indicates whether rotational values are in degrees (yes) or radians (no).

endheader
time	pelvis_tilt	pelvis_list	pelvis_rotation	pelvis_tx	pelvis_ty	pelvis_tz	hip_flexion_r	hip_adduction_r	hip_rotation_r	knee_angle_r	knee_angle_r_beta	ankle_angle_r	subtalar_angle_r	mtp_angle_r	hip_flexion_l	hip_adduction_l	hip_rotation_l	knee_angle_l	knee_angle_l_beta	ankle_angle_l	subtalar_angle_l	mtp_angle_l	lumbar_extension	lumbar_bending	lumbar_rotation	arm_flex_r	arm_add_r	arm_rot_r	elbow_flex_r	pro_sup_r	wrist_flex_r	wrist_dev_r	arm_flex_l	arm_add_l	arm_rot_l	elbow_flex_l	pro_sup_l	wrist_flex_l	wrist_dev_l
      5.00000000	    -30.69855917	     10.96696538	    -10.51253336	     -0.38489101	      0.84840297	     -1.06370784	     11.06591985	     -4.79740648	      9.22360941	     63.34114298	      1.10551150	      6.93041067	      0.00000000	      0.00000000	     71.85957120	      3.14194445	     -6.43890064	     68.18046561	      1.18997361	     19.15595695	      0.00000000	      0.00000000	      2.04075814	    -12.65428275	     10.87345569	     89.97241865	    -11.08258826	      9.93376081	     59.84904741	     50.48732683	      0.00000000	      0.00000000	     89.95234069	    -40.73717012	     -1.39967351	     52.43209982	     49.29989580	      0.00000000	      0.00000000
      5.00500000	    -30.60462146	     10.91892633	    -10.56769140	     -0.38463349	      0.84943245	     -1.06357651	     10.99102652	     -4.77305920	      9.19204243	     63.23776094	      1.10370714	      6.84098439	      0.00000000	      0.00000000	     71.55074598	      3.02851308	     -6.57571190	     67.78041371	      1.18299139	     18.97364105	      0.00000000	      0.00000000	      2.01531956	    -12.66358871	     10.83750618	     89.97242605	    -11.06864544	     10.00921094	     59.66791382	     50.51662244	      0.00000000	      0.00000000	     89.95230815	    -40.65898927	     -1.34763253	     52.43395631	     49.38364227	      0.00000000	      0.00000000
      5.01000000	    -30.59291921	     10.90911843	    -10.59769417	     -0.38448536	      0.85016872	     -1.06354968	     11.02057602	     -4.78071751	      9.18907689	     63.20948020	      1.10321355	      6.83047438	      0.00000000	      0.00000000	     71.49224846	      2.99982818	     -6.56823495	     67.75885185	      1.18261506	     18.95916386	      0.00000000	      0.00000000	      2.05398654	    -12.68339483	     10.79904582	     89.97237743	    -11.06459206	     10.00320974	     59.68931119	     50.52102253	      0.00000000	      0.00000000	     89.95225378	    -40.64407865	     -1.34372547	     52.44806941	     49.39362156	      0.00000000	      0.00000000
      5.01500000	    -30.45193715	     10.94028499	    -10.69081085	     -0.38408812	      0.85127942	     -1.06339754	     10.89910256	     -4.86271819	      9.20311298	     63.07627584	      1.10088869	      6.67259247	      0.00000000	      0.00000000	     71.13925070	      2.92408537	     -6.73761747	     67.39303258	      1.17623031	     18.81106014	      0.00000000	      0.00000000	      2.01299198	    -12.78245045	     10.79485878	     89.97235420	    -11.04918746	     10.06982564	     59.50809269	     50.55861220	      0.00000000	      0.00000000	     89.95233001	    -40.57477006	     -1.28455685	     52.37233164	     49.49196964	      0.00000000	      0.00000000
      5.02000000	    -30.27877475	     11.02270068	    -10.74691614	     -0.38374642	      0.85234327	     -1.06333482	     10.75936218	     -5.01318978	      9.19919568	     62.98157284	      1.09923581	      6.53582972	      0.00000000	      0.00000000	     70.86165309	      2.92230724	     -6.92804346	     67.21505798	      1.17312407	     18.65139344	      0.00000000	      0.00000000	      1.92037776	    -12.94061921	     10.79553015	     89.97233081	    -11.09784677	     10.08470318	     59.43353155	     50.68483476	      0.00000000	      0.00000000	     89.95246756	    -40.49558140	     -1.21925867	     52.32478631	     49.79025895	      0.00000000	      0.00000000
      5.02500000	    -30.33941804	     10.93038781	    -10.72110759	     -0.38380074	      0.85301752	     -1.06333000	     10.85378050	     -4.90933854	      9.14925118	     62.97430131	      1.09910890	      6.56169551	      0.00000000	      0.00000000	     70.83129449	      2.84516916	     -6.92928595	     67.05749657	      1.17037410	     18.59805850	      0.00000000	      0.00000000	      2.02425921	    -12.87212022	     10.71296171	     89.97230765	    -11.11171029	     10.10965231	     59.39192418	     50.71173602	      0.00000000	      0.00000000	     89.95244665	    -40.44291455	     -1.19994789	     52.35110198	     49.86011613	      0.00000000	      0.00000000
      5.03000000	    -30.32751863	     10.91478387	    -10.74247253	     -0.38367019	      0.85390640	     -1.06331503	     10.89309471	     -4.92133954	      9.14226190	     62.95205140	      1.09872057	      6.56088350	      0.00000000	      0.00000000	     70.76902184	      2.81500119	     -6.91544172	     67.02711364	      1.16984382	     18.58491444	      0.00000000	      0.00000000	      2.06041394	    -12.89024160	     10.67343686	     89.97223492	    -11.10572507	     10.10461558	     59.41416363	     50.71640729	      0.00000000	      0.00000000	     89.95235857	    -40.42660817	     -1.19749264	     52.36595217	     49.87034597	      0.00000000	      0.00000000
      5.03500000	    -30.25192848	     10.84458792	    -10.83218925	     -0.38346347	      0.85502765	     -1.06304499	     10.86983849	     -4.90418541	      9.08229750	     62.89835110	      1.09778332	      6.55992196	      0.00000000	      0.00000000	     70.48673363	      2.68394397	     -6.94957368	     66.67583452	      1.16371284	     18.44981664	      0.00000000	      0.00000000	      2.05677788	    -12.87990313	     10.66572515	     89.97222157	    -11.08817597	     10.16046430	     59.28003710	     50.74121870	      0.00000000	      0.00000000	     89.95232725	    -40.34960649	     -1.15739393	     52.34005874	     49.93858495	      0.00000000	      0.00000000
      5.04000000	    -30.24821156	     10.81892041	    -10.78955769	     -0.38328115	      0.85582465	     -1.06311200	     10.86486139	     -4.90050371	      9.06243523	     62.82558886	      1.09651338	      6.51147366	      0.00000000	      0.00000000	     70.37859390	      2.67877558	     -6.99785799	     66.51103149	      1.16083649	     18.37206833	      0.00000000	      0.00000000	      2.11597177	    -12.88903998	     10.59174390	     89.97219933	    -11.10581669	     10.17925133	     59.20257760	     50.76770077	      0.00000000	      0.00000000	     89.95242870	    -40.26084654	     -1.13064358	     52.30485515	     50.00556110	      0.00000000	      0.00000000
      5.04500000	    -30.22882239	     10.80071837	    -10.81663765	     -0.38310935	      0.85674971	     -1.06311371	     10.89459151	     -4.91810821	      9.04904532	     62.80153182	      1.09609351	      6.51194123	      0.00000000	      0.00000000	     70.30785338	      2.65182637	     -6.98662525	     66.47334446	      1.16017873	     18.35276244	      0.00000000	      0.00000000	      2.15042801	    -12.90987148	     10.54141622	     89.97211254	    -11.10580691	     10.17677934	     59.22081207	     50.77206379	      0.00000000	      0.00000000	     89.95234322	    -40.23584730	     -1.12642861	     52.31547807	     50.01577186	      0.00000000	      0.00000000
